<svg width="16" height="16" viewBox="0 0 16 16" fill="none" xmlns="http://www.w3.org/2000/svg">
<path d="M4.61133 9.90266L6.60666 7.30999L8.88266 9.09666L10.8353 6.57666" stroke="#1E1E1E" stroke-width="1.5" stroke-linecap="round" stroke-linejoin="round"/>
<path fill-rule="evenodd" clip-rule="evenodd" d="M13.1114 1.56665C13.8194 1.56665 14.3927 2.13998 14.3927 2.84798C14.3927 3.55532 13.8194 4.12932 13.1114 4.12932C12.4034 4.12932 11.8301 3.55532 11.8301 2.84798C11.8301 2.13998 12.4034 1.56665 13.1114 1.56665Z" stroke="#1E1E1E" stroke-width="1.5" stroke-linecap="round" stroke-linejoin="round"/>
<path d="M13.8368 6.1794C13.9255 6.77607 13.9661 7.44807 13.9661 8.20207C13.9661 12.8274 12.4248 14.3687 7.79948 14.3687C3.17481 14.3687 1.63281 12.8274 1.63281 8.20207C1.63281 3.5774 3.17481 2.0354 7.79948 2.0354C8.53948 2.0354 9.20015 2.07473 9.78815 2.16007" stroke="#1E1E1E" stroke-width="1.5" stroke-linecap="round" stroke-linejoin="round"/>
</svg>
