<svg width="16" height="16" viewBox="0 0 16 16" fill="none" xmlns="http://www.w3.org/2000/svg">
<path fill-rule="evenodd" clip-rule="evenodd" d="M14.0003 4.4492C14.0003 5.8016 12.9035 6.8984 11.5511 6.8984C10.1987 6.8984 9.10254 5.8016 9.10254 4.4492C9.10254 3.0968 10.1987 2 11.5511 2C12.9035 2 14.0003 3.0968 14.0003 4.4492Z" stroke="#1E1E1E" stroke-width="1.5" stroke-linecap="round" stroke-linejoin="round"/>
<path fill-rule="evenodd" clip-rule="evenodd" d="M6.8978 4.4492C6.8978 5.8016 5.8016 6.8984 4.4486 6.8984C3.0968 6.8984 2 5.8016 2 4.4492C2 3.0968 3.0968 2 4.4486 2C5.8016 2 6.8978 3.0968 6.8978 4.4492Z" stroke="#1E1E1E" stroke-width="1.5" stroke-linecap="round" stroke-linejoin="round"/>
<path fill-rule="evenodd" clip-rule="evenodd" d="M14.0003 11.508C14.0003 12.8604 12.9035 13.9566 11.5511 13.9566C10.1987 13.9566 9.10254 12.8604 9.10254 11.508C9.10254 10.1556 10.1987 9.05884 11.5511 9.05884C12.9035 9.05884 14.0003 10.1556 14.0003 11.508Z" stroke="#1E1E1E" stroke-width="1.5" stroke-linecap="round" stroke-linejoin="round"/>
<path fill-rule="evenodd" clip-rule="evenodd" d="M6.8978 11.508C6.8978 12.8604 5.8016 13.9566 4.4486 13.9566C3.0968 13.9566 2 12.8604 2 11.508C2 10.1556 3.0968 9.05884 4.4486 9.05884C5.8016 9.05884 6.8978 10.1556 6.8978 11.508Z" stroke="#1E1E1E" stroke-width="1.5" stroke-linecap="round" stroke-linejoin="round"/>
</svg>
