<svg width="16" height="16" viewBox="0 0 16 16" fill="none" xmlns="http://www.w3.org/2000/svg">
<path fill-rule="evenodd" clip-rule="evenodd" d="M8.00016 6.3335C8.92075 6.3335 9.66683 7.07958 9.66683 8.00016C9.66683 8.92075 8.92075 9.66683 8.00016 9.66683C7.07958 9.66683 6.3335 8.92075 6.3335 8.00016C6.3335 7.07958 7.07958 6.3335 8.00016 6.3335Z" stroke="#130F26" stroke-width="1.5" stroke-linecap="round" stroke-linejoin="round"/>
<path fill-rule="evenodd" clip-rule="evenodd" d="M13.4455 4.83358V4.83358C12.9898 4.03874 11.981 3.76677 11.1925 4.22576C10.5067 4.62417 9.64954 4.12567 9.64954 3.3282C9.64954 2.41088 8.91075 1.66675 8.00001 1.66675V1.66675C7.08926 1.66675 6.35047 2.41088 6.35047 3.3282C6.35047 4.12567 5.49334 4.62417 4.80816 4.22576C4.01902 3.76677 3.01021 4.03874 2.55451 4.83358C2.09947 5.62841 2.36949 6.64451 3.15862 7.10285C3.84381 7.50191 3.84381 8.49825 3.15862 8.89732C2.36949 9.35631 2.09947 10.3724 2.55451 11.1666C3.01021 11.9614 4.01902 12.2334 4.80751 11.7751H4.80816C5.49334 11.376 6.35047 11.8745 6.35047 12.672V12.672C6.35047 13.5893 7.08926 14.3334 8.00001 14.3334V14.3334C8.91075 14.3334 9.64954 13.5893 9.64954 12.672V12.672C9.64954 11.8745 10.5067 11.376 11.1925 11.7751C11.981 12.2334 12.9898 11.9614 13.4455 11.1666C13.9012 10.3724 13.6305 9.35631 12.842 8.89732H12.8414C12.1562 8.49825 12.1562 7.50191 12.842 7.10285C13.6305 6.64451 13.9012 5.62841 13.4455 4.83358Z" stroke="#130F26" stroke-width="1.5" stroke-linecap="round" stroke-linejoin="round"/>
</svg>
